<?xml version="1.0" encoding="UTF-8" standalone="no"?>
<!-- This is a Stata 16.1 generated SVG file (http://www.stata.com) -->

<svg version="1.1" width="5.50in" height="4.00in" viewBox="0 0 3960 2880" xmlns="http://www.w3.org/2000/svg" xmlns:xlink="http://www.w3.org/1999/xlink">
	<desc>Stata Graph - Graph</desc>
	<rect x="0" y="0" width="3960" height="2880" style="fill:#FFFFFF;stroke:none"/>
	<rect x="0.00" y="0.00" width="3959.88" height="2880.00" style="fill:#FFFFFF"/>
	<rect x="2.88" y="2.88" width="3954.12" height="2874.24" style="fill:none;stroke:#FFFFFF;stroke-width:5.76"/>
	<rect x="330.78" y="245.40" width="3528.24" height="2243.78" style="fill:#FFFFFF"/>
	<rect x="333.66" y="248.28" width="3522.48" height="2238.02" style="fill:none;stroke:#FFFFFF;stroke-width:5.76"/>
	<rect x="591.28" y="2421.74" width="94.30" height="4.08" style="fill:#90A4AE;fill-opacity:0.80"/>
	<rect x="591.28" y="2421.74" width="94.30" height="4.08" style="fill:none;stroke:#000000;stroke-opacity:0.00;stroke-width:0.00"/>
	<rect x="874.05" y="2419.76" width="94.17" height="6.06" style="fill:#90A4AE;fill-opacity:0.80"/>
	<rect x="874.05" y="2419.76" width="94.17" height="6.06" style="fill:none;stroke:#000000;stroke-opacity:0.00;stroke-width:0.00"/>
	<rect x="968.22" y="2417.66" width="94.30" height="8.17" style="fill:#90A4AE;fill-opacity:0.80"/>
	<rect x="968.22" y="2417.66" width="94.30" height="8.17" style="fill:none;stroke:#000000;stroke-opacity:0.00;stroke-width:0.00"/>
	<rect x="1062.52" y="2415.68" width="94.30" height="10.15" style="fill:#90A4AE;fill-opacity:0.80"/>
	<rect x="1062.52" y="2415.68" width="94.30" height="10.15" style="fill:none;stroke:#000000;stroke-opacity:0.00;stroke-width:0.00"/>
	<rect x="1156.82" y="2409.49" width="94.17" height="16.34" style="fill:#90A4AE;fill-opacity:0.80"/>
	<rect x="1156.82" y="2409.49" width="94.17" height="16.34" style="fill:none;stroke:#000000;stroke-opacity:0.00;stroke-width:0.00"/>
	<rect x="1250.99" y="2401.44" width="94.30" height="24.38" style="fill:#90A4AE;fill-opacity:0.80"/>
	<rect x="1250.99" y="2401.44" width="94.30" height="24.38" style="fill:none;stroke:#000000;stroke-opacity:0.00;stroke-width:0.00"/>
	<rect x="1345.29" y="2399.34" width="94.17" height="26.48" style="fill:#90A4AE;fill-opacity:0.80"/>
	<rect x="1345.29" y="2399.34" width="94.17" height="26.48" style="fill:none;stroke:#000000;stroke-opacity:0.00;stroke-width:0.00"/>
	<rect x="1439.46" y="2407.51" width="94.30" height="18.32" style="fill:#90A4AE;fill-opacity:0.80"/>
	<rect x="1439.46" y="2407.51" width="94.30" height="18.32" style="fill:none;stroke:#000000;stroke-opacity:0.00;stroke-width:0.00"/>
	<rect x="1533.76" y="2358.62" width="94.30" height="67.20" style="fill:#90A4AE;fill-opacity:0.80"/>
	<rect x="1533.76" y="2358.62" width="94.30" height="67.20" style="fill:none;stroke:#000000;stroke-opacity:0.00;stroke-width:0.00"/>
	<rect x="1628.06" y="2330.04" width="94.17" height="95.79" style="fill:#90A4AE;fill-opacity:0.80"/>
	<rect x="1628.06" y="2330.04" width="94.17" height="95.79" style="fill:none;stroke:#000000;stroke-opacity:0.00;stroke-width:0.00"/>
	<rect x="1722.23" y="2205.79" width="94.30" height="220.03" style="fill:#90A4AE;fill-opacity:0.80"/>
	<rect x="1722.23" y="2205.79" width="94.30" height="220.03" style="fill:none;stroke:#000000;stroke-opacity:0.00;stroke-width:0.00"/>
	<rect x="1816.53" y="1806.56" width="94.17" height="619.26" style="fill:#90A4AE;fill-opacity:0.80"/>
	<rect x="1816.53" y="1806.56" width="94.17" height="619.26" style="fill:none;stroke:#000000;stroke-opacity:0.00;stroke-width:0.00"/>
	<rect x="1910.70" y="447.62" width="94.30" height="1978.21" style="fill:#90A4AE;fill-opacity:0.80"/>
	<rect x="1910.70" y="447.62" width="94.30" height="1978.21" style="fill:none;stroke:#000000;stroke-opacity:0.00;stroke-width:0.00"/>
	<rect x="2005.00" y="1054.75" width="94.30" height="1371.07" style="fill:#90A4AE;fill-opacity:0.80"/>
	<rect x="2005.00" y="1054.75" width="94.30" height="1371.07" style="fill:none;stroke:#000000;stroke-opacity:0.00;stroke-width:0.00"/>
	<rect x="2099.30" y="1975.61" width="94.17" height="450.22" style="fill:#90A4AE;fill-opacity:0.80"/>
	<rect x="2099.30" y="1975.61" width="94.17" height="450.22" style="fill:none;stroke:#000000;stroke-opacity:0.00;stroke-width:0.00"/>
	<rect x="2193.47" y="2264.94" width="94.30" height="160.88" style="fill:#90A4AE;fill-opacity:0.80"/>
	<rect x="2193.47" y="2264.94" width="94.30" height="160.88" style="fill:none;stroke:#000000;stroke-opacity:0.00;stroke-width:0.00"/>
	<rect x="2287.77" y="2360.61" width="94.17" height="65.22" style="fill:#90A4AE;fill-opacity:0.80"/>
	<rect x="2287.77" y="2360.61" width="94.17" height="65.22" style="fill:none;stroke:#000000;stroke-opacity:0.00;stroke-width:0.00"/>
	<rect x="2381.94" y="2364.69" width="94.30" height="61.13" style="fill:#90A4AE;fill-opacity:0.80"/>
	<rect x="2381.94" y="2364.69" width="94.30" height="61.13" style="fill:none;stroke:#000000;stroke-opacity:0.00;stroke-width:0.00"/>
	<rect x="2476.24" y="2405.53" width="94.30" height="20.30" style="fill:#90A4AE;fill-opacity:0.80"/>
	<rect x="2476.24" y="2405.53" width="94.30" height="20.30" style="fill:none;stroke:#000000;stroke-opacity:0.00;stroke-width:0.00"/>
	<rect x="2570.53" y="2405.53" width="94.17" height="20.30" style="fill:#90A4AE;fill-opacity:0.80"/>
	<rect x="2570.53" y="2405.53" width="94.17" height="20.30" style="fill:none;stroke:#000000;stroke-opacity:0.00;stroke-width:0.00"/>
	<rect x="2664.71" y="2401.44" width="94.30" height="24.38" style="fill:#90A4AE;fill-opacity:0.80"/>
	<rect x="2664.71" y="2401.44" width="94.30" height="24.38" style="fill:none;stroke:#000000;stroke-opacity:0.00;stroke-width:0.00"/>
	<rect x="2759.01" y="2417.66" width="94.17" height="8.17" style="fill:#90A4AE;fill-opacity:0.80"/>
	<rect x="2759.01" y="2417.66" width="94.17" height="8.17" style="fill:none;stroke:#000000;stroke-opacity:0.00;stroke-width:0.00"/>
	<rect x="2853.18" y="2423.84" width="94.30" height="1.98" style="fill:#90A4AE;fill-opacity:0.80"/>
	<rect x="2853.18" y="2423.84" width="94.30" height="1.98" style="fill:none;stroke:#000000;stroke-opacity:0.00;stroke-width:0.00"/>
	<rect x="2947.48" y="2419.76" width="94.30" height="6.06" style="fill:#90A4AE;fill-opacity:0.80"/>
	<rect x="2947.48" y="2419.76" width="94.30" height="6.06" style="fill:none;stroke:#000000;stroke-opacity:0.00;stroke-width:0.00"/>
	<rect x="3135.95" y="2421.74" width="94.30" height="4.08" style="fill:#90A4AE;fill-opacity:0.80"/>
	<rect x="3135.95" y="2421.74" width="94.30" height="4.08" style="fill:none;stroke:#000000;stroke-opacity:0.00;stroke-width:0.00"/>
	<rect x="3324.42" y="2423.84" width="94.30" height="1.98" style="fill:#90A4AE;fill-opacity:0.80"/>
	<rect x="3324.42" y="2423.84" width="94.30" height="1.98" style="fill:none;stroke:#000000;stroke-opacity:0.00;stroke-width:0.00"/>
	<rect x="3701.49" y="2423.84" width="94.17" height="1.98" style="fill:#90A4AE;fill-opacity:0.80"/>
	<rect x="3701.49" y="2423.84" width="94.17" height="1.98" style="fill:none;stroke:#000000;stroke-opacity:0.00;stroke-width:0.00"/>
	<line x1="1987.67" y1="2425.95" x2="1987.67" y2="2368.40" style="stroke:#E65100;stroke-width:12.96"/>
	<line x1="1987.67" y1="2339.57" x2="1987.67" y2="2282.02" style="stroke:#E65100;stroke-width:12.96"/>
	<line x1="1987.67" y1="2253.19" x2="1987.67" y2="2195.52" style="stroke:#E65100;stroke-width:12.96"/>
	<line x1="1987.67" y1="2166.81" x2="1987.67" y2="2109.14" style="stroke:#E65100;stroke-width:12.96"/>
	<line x1="1987.67" y1="2080.30" x2="1987.67" y2="2022.76" style="stroke:#E65100;stroke-width:12.96"/>
	<line x1="1987.67" y1="1993.92" x2="1987.67" y2="1936.38" style="stroke:#E65100;stroke-width:12.96"/>
	<line x1="1987.67" y1="1907.54" x2="1987.67" y2="1850.00" style="stroke:#E65100;stroke-width:12.96"/>
	<line x1="1987.67" y1="1821.16" x2="1987.67" y2="1763.62" style="stroke:#E65100;stroke-width:12.96"/>
	<line x1="1987.67" y1="1734.78" x2="1987.67" y2="1677.24" style="stroke:#E65100;stroke-width:12.96"/>
	<line x1="1987.67" y1="1648.40" x2="1987.67" y2="1590.86" style="stroke:#E65100;stroke-width:12.96"/>
	<line x1="1987.67" y1="1562.02" x2="1987.67" y2="1504.48" style="stroke:#E65100;stroke-width:12.96"/>
	<line x1="1987.67" y1="1475.64" x2="1987.67" y2="1418.10" style="stroke:#E65100;stroke-width:12.96"/>
	<line x1="1987.67" y1="1389.26" x2="1987.67" y2="1331.59" style="stroke:#E65100;stroke-width:12.96"/>
	<line x1="1987.67" y1="1302.88" x2="1987.67" y2="1245.21" style="stroke:#E65100;stroke-width:12.96"/>
	<line x1="1987.67" y1="1216.50" x2="1987.67" y2="1158.83" style="stroke:#E65100;stroke-width:12.96"/>
	<line x1="1987.67" y1="1130.00" x2="1987.67" y2="1072.45" style="stroke:#E65100;stroke-width:12.96"/>
	<line x1="1987.67" y1="1043.62" x2="1987.67" y2="986.07" style="stroke:#E65100;stroke-width:12.96"/>
	<line x1="1987.67" y1="957.24" x2="1987.67" y2="899.69" style="stroke:#E65100;stroke-width:12.96"/>
	<line x1="1987.67" y1="870.86" x2="1987.67" y2="813.31" style="stroke:#E65100;stroke-width:12.96"/>
	<line x1="1987.67" y1="784.48" x2="1987.67" y2="726.93" style="stroke:#E65100;stroke-width:12.96"/>
	<line x1="1987.67" y1="698.10" x2="1987.67" y2="640.55" style="stroke:#E65100;stroke-width:12.96"/>
	<line x1="1987.67" y1="611.72" x2="1987.67" y2="554.17" style="stroke:#E65100;stroke-width:12.96"/>
	<line x1="1987.67" y1="525.34" x2="1987.67" y2="467.79" style="stroke:#E65100;stroke-width:12.96"/>
	<path d="" stroke-linejoin="round" style="fill:none;stroke:#E65100;stroke-width:12.96"/>
	<text x="2087.79" y="505.42" style="font-family:'cmr12';font-size:99.99px;fill:#E65100">Coefficient from</text>
	<text x="2087.79" y="605.41" style="font-family:'cmr12';font-size:99.99px;fill:#E65100">full sample</text>
	<line x1="330.78" y1="2425.82" x2="290.81" y2="2425.82" style="stroke:#000000;stroke-width:5.76"/>
	<text x="270.76" y="2460.85" style="font-family:'cmr12';font-size:99.99px;fill:#000000" text-anchor="end">0</text>
	<line x1="330.78" y1="1896.53" x2="290.81" y2="1896.53" style="stroke:#000000;stroke-width:5.76"/>
	<text x="270.76" y="1931.56" style="font-family:'cmr12';font-size:99.99px;fill:#000000" text-anchor="end">10</text>
	<line x1="330.78" y1="1367.23" x2="290.81" y2="1367.23" style="stroke:#000000;stroke-width:5.76"/>
	<text x="270.76" y="1402.26" style="font-family:'cmr12';font-size:99.99px;fill:#000000" text-anchor="end">20</text>
	<line x1="330.78" y1="838.06" x2="290.81" y2="838.06" style="stroke:#000000;stroke-width:5.76"/>
	<text x="270.76" y="873.09" style="font-family:'cmr12';font-size:99.99px;fill:#000000" text-anchor="end">30</text>
	<line x1="330.78" y1="308.77" x2="290.81" y2="308.77" style="stroke:#000000;stroke-width:5.76"/>
	<text x="270.76" y="343.79" style="font-family:'cmr12';font-size:99.99px;fill:#000000" text-anchor="end">40</text>
	<line x1="330.78" y1="2425.82" x2="330.78" y2="308.77" style="stroke:#000000;stroke-width:5.76"/>
	<line x1="394.14" y1="2489.19" x2="394.14" y2="2529.16" style="stroke:#000000;stroke-width:5.76"/>
	<text x="394.14" y="2619.14" style="font-family:'cmr12';font-size:99.99px;fill:#000000" text-anchor="middle">.045</text>
	<line x1="1037.77" y1="2489.19" x2="1037.77" y2="2529.16" style="stroke:#000000;stroke-width:5.76"/>
	<text x="1037.77" y="2619.14" style="font-family:'cmr12';font-size:99.99px;fill:#000000" text-anchor="middle">.0455</text>
	<line x1="1681.52" y1="2489.19" x2="1681.52" y2="2529.16" style="stroke:#000000;stroke-width:5.76"/>
	<text x="1681.52" y="2619.14" style="font-family:'cmr12';font-size:99.99px;fill:#000000" text-anchor="middle">.046</text>
	<line x1="2325.14" y1="2489.19" x2="2325.14" y2="2529.16" style="stroke:#000000;stroke-width:5.76"/>
	<text x="2325.14" y="2619.14" style="font-family:'cmr12';font-size:99.99px;fill:#000000" text-anchor="middle">.0465</text>
	<line x1="2968.76" y1="2489.19" x2="2968.76" y2="2529.16" style="stroke:#000000;stroke-width:5.76"/>
	<text x="2968.76" y="2619.14" style="font-family:'cmr12';font-size:99.99px;fill:#000000" text-anchor="middle">.047</text>
	<line x1="3612.51" y1="2489.19" x2="3612.51" y2="2529.16" style="stroke:#000000;stroke-width:5.76"/>
	<text x="3612.51" y="2619.14" style="font-family:'cmr12';font-size:99.99px;fill:#000000" text-anchor="middle">.0475</text>
	<line x1="394.14" y1="2489.19" x2="3612.51" y2="2489.19" style="stroke:#000000;stroke-width:5.76"/>
	<text x="2094.96" y="2729.16" style="font-family:'cmr12';font-size:99.99px;fill:#000000" text-anchor="middle">Effect of beaver entry on agriculture share</text>
	<text x="348.11" y="195.01" style="font-family:'cmr12';font-size:110.01px;fill:#000000">Percent</text>
</svg>
